<svg width="64" height="64" viewBox="0 0 64 64" fill="none" xmlns="http://www.w3.org/2000/svg">
  <path d="M10 12C10 8.68629 12.6863 6 16 6H32L44 18V52C44 55.3137 41.3137 58 38 58H16C12.6863 58 10 55.3137 10 52V12Z" fill="#4A7AFF" />
  <path d="M32 6V12C32 15.3137 34.6863 18 38 18H44L32 6Z" fill="#7A9CFF" />
  <path d="M54 22C57.3137 22 60 24.6863 60 28V52C60 55.3137 57.3137 58 54 58H44V46L54 46V28C54 26.8954 53.1046 26 52 26H44V22H54Z" fill="#FF5757" />
  <path d="M24 32L30 26V30H38V34H30V38L24 32Z" fill="white" />
</svg>